<?xml version="1.0"?>
<!DOCTYPE svg PUBLIC "//W3C//DTD SVG 1.0//EN" "http://www.w3.org/TR/2001/REC-SVG-20010904/DTD/svg10.dtd">
<svg vertical-align="middle" horizontal-align="center" width="100%" height="100%" fill="rgba(122, 122, 122, 1)" min-height="8" min-width="6" dirty="true" measured-width="64" measured-height="64" x="0" y="0" total-width="48" total-height="64" xmlns:xlink="http://www.w3.org/1999/xlink" xmlns="http://www.w3.org/2000/svg">
	<!--<g _tmplitem="175"  id="icon-" width="100%" height="100%" resize-mode="aspect" >-->                 
	<path width="100%" height="100%" resize-mode="aspect" id="icon-yelp" d="M 16.1572 3.22291 c 3.22531 -2.50407 9.42415 -3.22291 11.978 -2.73315 C 30.6891 0.975562 32.024 2.38558 32.04 4.10763 l 0.147877 21.9166 c 0.00799334 1.72204 -0.891257 3.3019 -2.01032 3.51518 C 29.0505 29.7448 27.3958 28.7218 26.4846 27.2565 L 14.8503 8.46803 C 13.947 6.99877 12.1286 6.35497 16.1572 3.22291 Z M 12.2924 44.8916 L 24.0067 40.7959 c 1.63064 -0.572698 3.09342 -2.1644 3.25729 -3.54678 c 0.159867 -1.38237 -1.02714 -3.02543 -2.6378 -3.65342 L 12.2565 28.7494 C 10.6418 28.1175 8.78734 29.6105 8.29575 32.0513 c 0 0 -0.295754 8.50358 0 10.2651 C 8.5955 44.0741 10.6618 45.4683 12.2924 44.8916 Z M 32.7274 46.9415 c 0.0319734 -1.72599 -0.899251 -3.21501 -2.07427 -3.32165 c -1.17502 -0.10664 -3.03747 0.88077 -4.15254 2.196 L 18.3314 55.4964 c -1.11507 1.31523 -0.56353 4.4078 1.06311 4.99235 l 8.54488 2.93063 c 1.62664 0.580597 4.49226 -1.1454 4.52423 -2.86744 L 32.7274 46.9415 Z M 53.0385 44.6862 L 42.791 41.7754 c -1.65862 -0.470007 -3.54505 -0.426561 -4.18451 0.10664 c -0.639467 0.529252 -0.4796 2.196 0.355704 3.70476 l 6.46661 11.6949 c 0.835304 1.50481 4.18052 1.24809 5.09975 -0.213281 c 0 0 3.90075 -5.67958 4.61615 -7.81239 C 55.8601 47.1192 54.6971 45.1563 53.0385 44.6862 Z M 55.5324 28.2439 c -0.459617 -1.48112 -3.66495 -5.84152 -5.3995 -7.32659 c -1.73455 -1.48901 -3.7169 -1.30338 -4.83197 0.00394964 l -6.6065 7.7729 c -1.11907 1.30733 -1.41482 3.38089 -0.671441 4.60133 c 0.747377 1.22044 2.73372 1.91163 4.42032 1.53641 l 11.4185 -2.09331 C 55.9281 32.2488 56 29.7211 55.5324 28.2439 Z" min-width="6" min-height="8" dirty="true" measured-width="48" measured-height="64"></path>
	<!--</g>-->        
</svg>
