<?xml version="1.0"?>
<!DOCTYPE svg PUBLIC "//W3C//DTD SVG 1.0//EN" "http://www.w3.org/TR/2001/REC-SVG-20010904/DTD/svg10.dtd">
<svg vertical-align="middle" horizontal-align="center" width="100%" height="100%" fill="rgba(122, 122, 122, 1)" min-height="8" min-width="8" dirty="true" measured-width="32" measured-height="32" x="0" y="0" total-width="32" total-height="32" xmlns:xlink="http://www.w3.org/1999/xlink" xmlns="http://www.w3.org/2000/svg">                 
	<!--<g _tmplitem="130"  id="icon-" width="100%" height="100%" resize-mode="aspect" >-->                

	<path width="100%" height="100%" resize-mode="aspect" id="icon-circle-heart" d="M 16 0 C 7.164 0 0 7.164 0 16 c 0 8.838 7.164 16 16 16 s 16 -7.162 16 -16 C 32 7.164 24.836 0 16 0 Z M 24.872 16.492 c -4.246 4.828 -8.25 9.036 -8.792 9.6 l 0.004 0.07 l -0.036 -0.038 l -0.036 0.038 l 0.004 -0.07 c -0.542 -0.564 -4.546 -4.772 -8.792 -9.6 C 3.75 12.678 9.492 2.934 16.012 11.294 h 0.07 C 22.602 2.934 28.344 12.678 24.872 16.492 Z" min-width="8" min-height="8" dirty="true" measured-width="32" measured-height="32"></path>
</svg>
