<?xml version="1.0"?>
<!DOCTYPE svg PUBLIC "//W3C//DTD SVG 1.0//EN" "http://www.w3.org/TR/2001/REC-SVG-20010904/DTD/svg10.dtd">
            
<svg vertical-align="middle" horizontal-align="center" width="100%" height="100%" fill="rgba(122, 122, 122, 1)" min-height="8" min-width="8" dirty="true" measured-width="16" measured-height="16" x="0" y="0" total-width="16" total-height="16" xmlns:xlink="http://www.w3.org/1999/xlink" xmlns="http://www.w3.org/2000/svg">                 <!--<g _tmplitem="70"  id="icon-" width="100%" height="100%" resize-mode="aspect" >-->                 
<path width="100%" height="100%" resize-mode="aspect" id="icon-message-bubbles" d="M 5.357 11 c 0 0.577 0.109 1.129 0.295 1.65 c 0.051 0.148 0.107 0.295 0.172 0.438 c 0.117 0.254 0.248 0.5 0.402 0.734 c -0.416 -0.083 -0.816 -0.196 -1.205 -0.332 L 0 16 l 2.129 -4.256 C 0.811 10.498 0 8.833 0 7 c 0 -3.865 3.582 -7 8 -7 c 4.42 0 8 3.135 8 7 c 0 0.125 -0.014 0.247 -0.021 0.371 C 14.865 6.227 13.24 5.5 11.43 5.5 C 8.082 5.5 5.357 7.967 5.357 11 Z M 14.518 12.803 c 0.658 -0.848 0.959 -1.901 0.721 -2.949 c -0.455 -2.011 -2.689 -3.22 -4.986 -2.699 S 6.463 9.729 6.918 11.74 c 0.457 2.012 2.689 3.22 4.986 2.699 c 0.105 -0.024 0.199 -0.067 0.303 -0.098 L 16 16 L 14.518 12.803 Z" min-width="8" min-height="8" dirty="true" measured-width="16" measured-height="16"></path>                 <!--</g>-->         </svg>
