<?xml version="1.0"?>
<!DOCTYPE svg PUBLIC "//W3C//DTD SVG 1.0//EN" "http://www.w3.org/TR/2001/REC-SVG-20010904/DTD/svg10.dtd">
<svg fill="rgba(122, 122, 122, 1)" width="16" height="16" vertical-align="middle" horizontal-align="center" min-height="16" min-width="16" dirty="true" measured-width="16" measured-height="16" x="6" y="2" total-width="16" total-height="16" xmlns:xlink="http://www.w3.org/1999/xlink" xmlns="http://www.w3.org/2000/svg">       
<!--<g _tmplitem="140"  width="100%" height="100%"  resize-mode="aspect"  fill="rgba(122, 122, 122, 1)" >-->        
<path width="100%" height="100%" resize-mode="aspect" id="icon-user" d="M 15.8713 16 H 0.1277 c 0 0 -0.1277 -3.14526 0.296953 -3.79897 c 0.473301 -0.730919 2.06448 -1.18511 3.63844 -1.83281 C 5.63806 9.71751 6.01102 9.49192 6.01102 9.49192 l 0.0162159 -1.49392 c 0 0 -0.590866 -0.448176 -0.774308 -1.85487 C 4.88402 6.2494 4.49686 5.5997 4.47558 5.2568 c -0.0212833 -0.329866 0.0506746 -1.24527 0.500665 -1.15303 C 4.88503 3.41396 4.81814 2.79434 4.85159 2.46647 c 0.116552 -1.20015 1.31247 -2.46647 3.14892 -2.46647 s 3.03034 1.26632 3.14791 2.46647 c 0.0324318 0.327861 -0.0344587 0.947487 -0.125673 1.6373 c 0.448977 -0.0922421 0.520935 0.823161 0.500665 1.15303 c -0.0212833 0.3429 -0.408437 0.992606 -0.778362 0.887329 c -0.182429 1.40569 -0.772281 1.85487 -0.772281 1.85487 l 0.0141889 1.49392 c 0 0 0.373979 0.225592 1.94793 0.875298 c 1.57497 0.6477 3.16514 1.1029 3.63844 1.83281 C 16 12.8547 15.8713 16 15.8713 16 Z" min-width="8" min-height="8" dirty="true" measured-width="16" measured-height="16"></path>              <!--</g>-->      
</svg>
