<?xml version="1.0"?>
<!DOCTYPE svg PUBLIC "//W3C//DTD SVG 1.0//EN" "http://www.w3.org/TR/2001/REC-SVG-20010904/DTD/svg10.dtd">
<svg width="100%" height="100%" fill="rgba(214, 214, 214, 1)" xmlns:xlink="http://www.w3.org/1999/xlink" xmlns="http://www.w3.org/2000/svg">  
	<path width="100%" height="100%" resize-mode="aspect" id="icon-eye" d="M 32 12 C 8 12 0 32 0 32 s 8 20 32 20 s 32 -20 32 -20 S 56 12 32 12 Z M 32 48 c -17.464 0 -25.304 -11.752 -27.572 -16 C 6.704 27.74 14.548 16 32 16 c 17.464 0 25.304 11.752 27.572 16 C 57.296 36.26 49.452 48 32 48 Z M 40.484 23.516 C 42.656 25.688 44 28.688 44 32 c 0 6.628 -5.376 12 -12 12 S 20 38.628 20 32 s 5.376 -12 12 -12 v 12 L 40.484 23.516 Z" min-width="8" min-height="5" dirty="true" measured-height="40" measured-width="64"></path>
</svg>
