<?xml version="1.0"?>
<!DOCTYPE svg PUBLIC "//W3C//DTD SVG 1.0//EN" "http://www.w3.org/TR/2001/REC-SVG-20010904/DTD/svg10.dtd">
<svg vertical-align="middle" horizontal-align="center" width="100%" height="100%" fill="rgba(230, 22, 16, 1)" min-height="8" min-width="8" dirty="true" measured-width="16" measured-height="16" x="0" y="0" total-width="16" total-height="16" xmlns:xlink="http://www.w3.org/1999/xlink" xmlns="http://www.w3.org/2000/svg">                 <!--<g _tmplitem="123"  id="icon-" width="100%" height="100%" resize-mode="aspect" >-->                 <path width="100%" height="100%" resize-mode="aspect" id="icon-circle-heart" d="M 8 0 C 3.582 0 0 3.582 0 8 c 0 4.419 3.582 8 8 8 s 8 -3.581 8 -8 C 16 3.582 12.418 0 8 0 Z M 12.436 8.246 c -2.123 2.414 -4.125 4.518 -4.396 4.8 l 0.002 0.035 l -0.018 -0.019 l -0.018 0.019 l 0.002 -0.035 c -0.271 -0.282 -2.273 -2.386 -4.396 -4.8 C 1.875 6.339 4.746 1.467 8.006 5.647 h 0.035 C 11.301 1.467 14.172 6.339 12.436 8.246 Z" min-width="8" min-height="8" dirty="true" measured-width="16" measured-height="16"></path>                 <!--</g>-->         </svg>
