<?xml version="1.0"?>
<!DOCTYPE svg PUBLIC "//W3C//DTD SVG 1.0//EN" "http://www.w3.org/TR/2001/REC-SVG-20010904/DTD/svg10.dtd">
<svg vertical-align="middle" horizontal-align="center" width="100%" height="100%" fill="rgba(122, 122, 122, 1)" min-height="8" min-width="8" dirty="true" measured-width="32" measured-height="32" x="0" y="0" total-width="32" total-height="32" xmlns:xlink="http://www.w3.org/1999/xlink" xmlns="http://www.w3.org/2000/svg">                 
	<!--<g _tmplitem="130"  id="icon-" width="100%" height="100%" resize-mode="aspect" >-->                
	<path width="100%" height="100%" resize-mode="aspect" id="icon-user-circle" d="M 16 0 C 7.164 0 0 7.162 0 16 c 0 4.098 1.552 7.822 4.086 10.654 C 7.016 29.928 11.262 32 16 32 c 4.796 0 9.09 -2.122 12.024 -5.464 C 30.492 23.718 32 20.04 32 16 C 32 7.162 24.836 0 16 0 Z M 27.18 24.39 c -1.034 -0.848 -3.06 -1.482 -5.086 -2.328 c -2.414 -1.004 -2.982 -1.356 -2.982 -1.356 L 19.088 18.392 c 0 0 0.9 -0.694 1.184 -2.876 c 0.564 0.166 1.158 -0.842 1.192 -1.372 c 0.03 -0.51 -0.078 -1.932 -0.768 -1.79 c 0.138 -1.068 0.24 -2.028 0.192 -2.536 C 20.708 7.96 18.876 6 16.058 6 C 13.248 6 11.412 7.96 11.232 9.822 C 11.186 10.33 11.286 11.29 11.426 12.358 C 10.734 12.214 10.626 13.636 10.66 14.146 c 0.032 0.53 0.624 1.538 1.19 1.372 c 0.28 2.182 1.184 2.876 1.184 2.876 l -0.024 2.314 c 0 0 -0.57 0.352 -2.98 1.356 c -2.076 0.866 -4.158 1.508 -5.166 2.386 C 3.074 22.098 2 19.176 2 16 c 0 -7.718 6.282 -14 14 -14 s 14 6.282 14 14 C 30 19.148 28.942 22.046 27.18 24.39 Z" min-width="8" min-height="8" dirty="true" measured-width="32" measured-height="32"></path>
</svg>
